<svg width="27" height="27" viewBox="0 0 27 27" fill="none" xmlns="http://www.w3.org/2000/svg">
<path d="M11.925 18.675L19.8563 10.7438L18.2813 9.16875L11.925 15.525L8.71875 12.3188L7.14375 13.8938L11.925 18.675ZM13.5 24.75C11.9438 24.75 10.4813 24.4547 9.1125 23.8641C7.74375 23.2734 6.55313 22.4719 5.54063 21.4594C4.52813 20.4469 3.72656 19.2563 3.13594 17.8875C2.54531 16.5188 2.25 15.0563 2.25 13.5C2.25 11.9438 2.54531 10.4813 3.13594 9.1125C3.72656 7.74375 4.52813 6.55313 5.54063 5.54063C6.55313 4.52813 7.74375 3.72656 9.1125 3.13594C10.4813 2.54531 11.9438 2.25 13.5 2.25C15.0563 2.25 16.5188 2.54531 17.8875 3.13594C19.2563 3.72656 20.4469 4.52813 21.4594 5.54063C22.4719 6.55313 23.2734 7.74375 23.8641 9.1125C24.4547 10.4813 24.75 11.9438 24.75 13.5C24.75 15.0563 24.4547 16.5188 23.8641 17.8875C23.2734 19.2563 22.4719 20.4469 21.4594 21.4594C20.4469 22.4719 19.2563 23.2734 17.8875 23.8641C16.5188 24.4547 15.0563 24.75 13.5 24.75ZM13.5 22.5C16.0125 22.5 18.1406 21.6281 19.8844 19.8844C21.6281 18.1406 22.5 16.0125 22.5 13.5C22.5 10.9875 21.6281 8.85938 19.8844 7.11563C18.1406 5.37188 16.0125 4.5 13.5 4.5C10.9875 4.5 8.85938 5.37188 7.11563 7.11563C5.37188 8.85938 4.5 10.9875 4.5 13.5C4.5 16.0125 5.37188 18.1406 7.11563 19.8844C8.85938 21.6281 10.9875 22.5 13.5 22.5Z" fill="#0DA84B"/>
</svg>
